<svg xmlns="http://www.w3.org/2000/svg" viewBox="0 0 96 96" role="img" aria-label="Lupercus wolf logo">
  <rect width="96" height="96" fill="transparent"/>
  <g fill="none" stroke="#f6f0e8" stroke-linecap="round" stroke-linejoin="round">
    <path d="M18 18 35 28 48 20 61 28 78 18 72 42 82 57 68 56 61 76 48 66 35 76 28 56 14 57 24 42Z" fill="#050505" stroke-width="4"/>
    <path d="M24 25 36 36 28 39M72 25 60 36 68 39" stroke-width="2.8"/>
    <path d="M31 45 42 42M65 45 54 42" stroke-width="3.2"/>
    <path d="M39 54 48 50 57 54 48 62Z" fill="#f6f0e8" stroke-width="2.4"/>
    <path d="M39 62 48 70 57 62M48 62v8" stroke-width="2.5"/>
    <path d="M29 33 35 29 41 34M67 33 61 29 55 34" stroke-width="2" opacity="0.85"/>
    <path d="M23 55 11 68 27 66 20 80 36 72M73 55 85 68 69 66 76 80 60 72" stroke-width="3"/>
    <path d="M35 52 28 50M61 52 68 50M34 58 27 60M62 58 69 60" stroke-width="2" opacity="0.8"/>
  </g>
  <g fill="#f6f0e8">
    <path d="M36 44c2.8-1.3 6.5-1.3 9.2.4-3.6 3.2-6.8 3.1-9.2-.4Z"/>
    <path d="M60 44c-2.8-1.3-6.5-1.3-9.2.4 3.6 3.2 6.8 3.1 9.2-.4Z"/>
  </g>
</svg>
